<mxfile host="app.diagrams.net" modified="2024-05-18T08:23:19.593Z" agent="Mozilla/5.0 (Windows NT 10.0; Win64; x64) AppleWebKit/537.36 (KHTML, like Gecko) Chrome/124.0.0.0 Safari/537.36 Edg/124.0.0.0" etag="BGq7C5o9KYLBSfta2-k9" version="24.4.4" type="device">
  <diagram name="Page-1" id="FZE5oNrSAehELrIdYmne">
    <mxGraphModel dx="986" dy="467" grid="1" gridSize="10" guides="1" tooltips="1" connect="1" arrows="1" fold="1" page="1" pageScale="1" pageWidth="850" pageHeight="1100" math="0" shadow="0">
      <root>
        <mxCell id="0" />
        <mxCell id="1" parent="0" />
        <mxCell id="Ry9jA5pQjCQYoDPNr2ZG-1" value="User" style="shape=umlLifeline;perimeter=lifelinePerimeter;whiteSpace=wrap;container=1;dropTarget=0;collapsible=0;recursiveResize=0;outlineConnect=0;portConstraint=eastwest;newEdgeStyle={&quot;edgeStyle&quot;:&quot;elbowEdgeStyle&quot;,&quot;elbow&quot;:&quot;vertical&quot;,&quot;curved&quot;:0,&quot;rounded&quot;:0};size=65;" vertex="1" parent="1">
          <mxGeometry x="20" y="20" width="150" height="1408" as="geometry" />
        </mxCell>
        <mxCell id="Ry9jA5pQjCQYoDPNr2ZG-2" value="EmployeeManagementSystem" style="shape=umlLifeline;perimeter=lifelinePerimeter;whiteSpace=wrap;container=1;dropTarget=0;collapsible=0;recursiveResize=0;outlineConnect=0;portConstraint=eastwest;newEdgeStyle={&quot;edgeStyle&quot;:&quot;elbowEdgeStyle&quot;,&quot;elbow&quot;:&quot;vertical&quot;,&quot;curved&quot;:0,&quot;rounded&quot;:0};size=65;" vertex="1" parent="1">
          <mxGeometry x="278" y="10" width="170" height="1418" as="geometry" />
        </mxCell>
        <mxCell id="Ry9jA5pQjCQYoDPNr2ZG-3" value="" style="points=[];perimeter=orthogonalPerimeter;outlineConnect=0;targetShapes=umlLifeline;portConstraint=eastwest;newEdgeStyle={&quot;edgeStyle&quot;:&quot;elbowEdgeStyle&quot;,&quot;elbow&quot;:&quot;vertical&quot;,&quot;curved&quot;:0,&quot;rounded&quot;:0}" vertex="1" parent="Ry9jA5pQjCQYoDPNr2ZG-2">
          <mxGeometry x="80" y="107" width="10" height="166" as="geometry" />
        </mxCell>
        <mxCell id="Ry9jA5pQjCQYoDPNr2ZG-4" value="" style="points=[];perimeter=orthogonalPerimeter;outlineConnect=0;targetShapes=umlLifeline;portConstraint=eastwest;newEdgeStyle={&quot;edgeStyle&quot;:&quot;elbowEdgeStyle&quot;,&quot;elbow&quot;:&quot;vertical&quot;,&quot;curved&quot;:0,&quot;rounded&quot;:0}" vertex="1" parent="Ry9jA5pQjCQYoDPNr2ZG-2">
          <mxGeometry x="78" y="315" width="10" height="166" as="geometry" />
        </mxCell>
        <mxCell id="Ry9jA5pQjCQYoDPNr2ZG-5" value="EmployeeDBTable" style="shape=umlLifeline;perimeter=lifelinePerimeter;whiteSpace=wrap;container=1;dropTarget=0;collapsible=0;recursiveResize=0;outlineConnect=0;portConstraint=eastwest;newEdgeStyle={&quot;edgeStyle&quot;:&quot;elbowEdgeStyle&quot;,&quot;elbow&quot;:&quot;vertical&quot;,&quot;curved&quot;:0,&quot;rounded&quot;:0};size=65;" vertex="1" parent="1">
          <mxGeometry x="555" y="20" width="150" height="1408" as="geometry" />
        </mxCell>
        <mxCell id="Ry9jA5pQjCQYoDPNr2ZG-6" value="" style="points=[];perimeter=orthogonalPerimeter;outlineConnect=0;targetShapes=umlLifeline;portConstraint=eastwest;newEdgeStyle={&quot;edgeStyle&quot;:&quot;elbowEdgeStyle&quot;,&quot;elbow&quot;:&quot;vertical&quot;,&quot;curved&quot;:0,&quot;rounded&quot;:0}" vertex="1" parent="Ry9jA5pQjCQYoDPNr2ZG-5">
          <mxGeometry x="70" y="159" width="10" height="52" as="geometry" />
        </mxCell>
        <mxCell id="Ry9jA5pQjCQYoDPNr2ZG-7" value="" style="points=[];perimeter=orthogonalPerimeter;outlineConnect=0;targetShapes=umlLifeline;portConstraint=eastwest;newEdgeStyle={&quot;edgeStyle&quot;:&quot;elbowEdgeStyle&quot;,&quot;elbow&quot;:&quot;vertical&quot;,&quot;curved&quot;:0,&quot;rounded&quot;:0}" vertex="1" parent="Ry9jA5pQjCQYoDPNr2ZG-5">
          <mxGeometry x="70" y="367" width="10" height="52" as="geometry" />
        </mxCell>
        <mxCell id="Ry9jA5pQjCQYoDPNr2ZG-8" value="PayrollForm" style="shape=umlLifeline;perimeter=lifelinePerimeter;whiteSpace=wrap;container=1;dropTarget=0;collapsible=0;recursiveResize=0;outlineConnect=0;portConstraint=eastwest;newEdgeStyle={&quot;edgeStyle&quot;:&quot;elbowEdgeStyle&quot;,&quot;elbow&quot;:&quot;vertical&quot;,&quot;curved&quot;:0,&quot;rounded&quot;:0};size=65;" vertex="1" parent="1">
          <mxGeometry x="755" y="20" width="150" height="1408" as="geometry" />
        </mxCell>
        <mxCell id="Ry9jA5pQjCQYoDPNr2ZG-9" value="" style="points=[];perimeter=orthogonalPerimeter;outlineConnect=0;targetShapes=umlLifeline;portConstraint=eastwest;newEdgeStyle={&quot;edgeStyle&quot;:&quot;elbowEdgeStyle&quot;,&quot;elbow&quot;:&quot;vertical&quot;,&quot;curved&quot;:0,&quot;rounded&quot;:0}" vertex="1" parent="Ry9jA5pQjCQYoDPNr2ZG-8">
          <mxGeometry x="70" y="523" width="10" height="166" as="geometry" />
        </mxCell>
        <mxCell id="Ry9jA5pQjCQYoDPNr2ZG-10" value="" style="points=[];perimeter=orthogonalPerimeter;outlineConnect=0;targetShapes=umlLifeline;portConstraint=eastwest;newEdgeStyle={&quot;edgeStyle&quot;:&quot;elbowEdgeStyle&quot;,&quot;elbow&quot;:&quot;vertical&quot;,&quot;curved&quot;:0,&quot;rounded&quot;:0}" vertex="1" parent="Ry9jA5pQjCQYoDPNr2ZG-8">
          <mxGeometry x="70" y="731" width="10" height="166" as="geometry" />
        </mxCell>
        <mxCell id="Ry9jA5pQjCQYoDPNr2ZG-11" value="PayrollDBTable" style="shape=umlLifeline;perimeter=lifelinePerimeter;whiteSpace=wrap;container=1;dropTarget=0;collapsible=0;recursiveResize=0;outlineConnect=0;portConstraint=eastwest;newEdgeStyle={&quot;edgeStyle&quot;:&quot;elbowEdgeStyle&quot;,&quot;elbow&quot;:&quot;vertical&quot;,&quot;curved&quot;:0,&quot;rounded&quot;:0};size=65;" vertex="1" parent="1">
          <mxGeometry x="1007" y="20" width="150" height="1408" as="geometry" />
        </mxCell>
        <mxCell id="Ry9jA5pQjCQYoDPNr2ZG-12" value="" style="points=[];perimeter=orthogonalPerimeter;outlineConnect=0;targetShapes=umlLifeline;portConstraint=eastwest;newEdgeStyle={&quot;edgeStyle&quot;:&quot;elbowEdgeStyle&quot;,&quot;elbow&quot;:&quot;vertical&quot;,&quot;curved&quot;:0,&quot;rounded&quot;:0}" vertex="1" parent="Ry9jA5pQjCQYoDPNr2ZG-11">
          <mxGeometry x="70" y="575" width="10" height="52" as="geometry" />
        </mxCell>
        <mxCell id="Ry9jA5pQjCQYoDPNr2ZG-13" value="" style="points=[];perimeter=orthogonalPerimeter;outlineConnect=0;targetShapes=umlLifeline;portConstraint=eastwest;newEdgeStyle={&quot;edgeStyle&quot;:&quot;elbowEdgeStyle&quot;,&quot;elbow&quot;:&quot;vertical&quot;,&quot;curved&quot;:0,&quot;rounded&quot;:0}" vertex="1" parent="Ry9jA5pQjCQYoDPNr2ZG-11">
          <mxGeometry x="70" y="783" width="10" height="52" as="geometry" />
        </mxCell>
        <mxCell id="Ry9jA5pQjCQYoDPNr2ZG-14" value="AttendanceForm" style="shape=umlLifeline;perimeter=lifelinePerimeter;whiteSpace=wrap;container=1;dropTarget=0;collapsible=0;recursiveResize=0;outlineConnect=0;portConstraint=eastwest;newEdgeStyle={&quot;edgeStyle&quot;:&quot;elbowEdgeStyle&quot;,&quot;elbow&quot;:&quot;vertical&quot;,&quot;curved&quot;:0,&quot;rounded&quot;:0};size=65;" vertex="1" parent="1">
          <mxGeometry x="1207" y="20" width="150" height="1408" as="geometry" />
        </mxCell>
        <mxCell id="Ry9jA5pQjCQYoDPNr2ZG-15" value="" style="points=[];perimeter=orthogonalPerimeter;outlineConnect=0;targetShapes=umlLifeline;portConstraint=eastwest;newEdgeStyle={&quot;edgeStyle&quot;:&quot;elbowEdgeStyle&quot;,&quot;elbow&quot;:&quot;vertical&quot;,&quot;curved&quot;:0,&quot;rounded&quot;:0}" vertex="1" parent="Ry9jA5pQjCQYoDPNr2ZG-14">
          <mxGeometry x="70" y="939" width="10" height="166" as="geometry" />
        </mxCell>
        <mxCell id="Ry9jA5pQjCQYoDPNr2ZG-16" value="" style="points=[];perimeter=orthogonalPerimeter;outlineConnect=0;targetShapes=umlLifeline;portConstraint=eastwest;newEdgeStyle={&quot;edgeStyle&quot;:&quot;elbowEdgeStyle&quot;,&quot;elbow&quot;:&quot;vertical&quot;,&quot;curved&quot;:0,&quot;rounded&quot;:0}" vertex="1" parent="Ry9jA5pQjCQYoDPNr2ZG-14">
          <mxGeometry x="70" y="1147" width="10" height="166" as="geometry" />
        </mxCell>
        <mxCell id="Ry9jA5pQjCQYoDPNr2ZG-17" value="AttendanceDBTable" style="shape=umlLifeline;perimeter=lifelinePerimeter;whiteSpace=wrap;container=1;dropTarget=0;collapsible=0;recursiveResize=0;outlineConnect=0;portConstraint=eastwest;newEdgeStyle={&quot;edgeStyle&quot;:&quot;elbowEdgeStyle&quot;,&quot;elbow&quot;:&quot;vertical&quot;,&quot;curved&quot;:0,&quot;rounded&quot;:0};size=65;" vertex="1" parent="1">
          <mxGeometry x="1459" y="20" width="150" height="1408" as="geometry" />
        </mxCell>
        <mxCell id="Ry9jA5pQjCQYoDPNr2ZG-18" value="" style="points=[];perimeter=orthogonalPerimeter;outlineConnect=0;targetShapes=umlLifeline;portConstraint=eastwest;newEdgeStyle={&quot;edgeStyle&quot;:&quot;elbowEdgeStyle&quot;,&quot;elbow&quot;:&quot;vertical&quot;,&quot;curved&quot;:0,&quot;rounded&quot;:0}" vertex="1" parent="Ry9jA5pQjCQYoDPNr2ZG-17">
          <mxGeometry x="70" y="991" width="10" height="52" as="geometry" />
        </mxCell>
        <mxCell id="Ry9jA5pQjCQYoDPNr2ZG-19" value="" style="points=[];perimeter=orthogonalPerimeter;outlineConnect=0;targetShapes=umlLifeline;portConstraint=eastwest;newEdgeStyle={&quot;edgeStyle&quot;:&quot;elbowEdgeStyle&quot;,&quot;elbow&quot;:&quot;vertical&quot;,&quot;curved&quot;:0,&quot;rounded&quot;:0}" vertex="1" parent="Ry9jA5pQjCQYoDPNr2ZG-17">
          <mxGeometry x="70" y="1199" width="10" height="52" as="geometry" />
        </mxCell>
        <mxCell id="Ry9jA5pQjCQYoDPNr2ZG-20" value="Add/Update/Delete Employee" style="verticalAlign=bottom;endArrow=block;edgeStyle=elbowEdgeStyle;elbow=vertical;curved=0;rounded=0;" edge="1" parent="1" source="Ry9jA5pQjCQYoDPNr2ZG-1" target="Ry9jA5pQjCQYoDPNr2ZG-3">
          <mxGeometry relative="1" as="geometry">
            <Array as="points">
              <mxPoint x="247" y="127" />
            </Array>
          </mxGeometry>
        </mxCell>
        <mxCell id="Ry9jA5pQjCQYoDPNr2ZG-21" value="Perform CRUD operations" style="verticalAlign=bottom;endArrow=block;edgeStyle=elbowEdgeStyle;elbow=vertical;curved=0;rounded=0;" edge="1" parent="1" source="Ry9jA5pQjCQYoDPNr2ZG-3" target="Ry9jA5pQjCQYoDPNr2ZG-6">
          <mxGeometry relative="1" as="geometry">
            <Array as="points">
              <mxPoint x="517" y="179" />
            </Array>
          </mxGeometry>
        </mxCell>
        <mxCell id="Ry9jA5pQjCQYoDPNr2ZG-22" value="Success/Failure Response" style="verticalAlign=bottom;endArrow=block;edgeStyle=elbowEdgeStyle;elbow=vertical;curved=0;rounded=0;dashed=1;dashPattern=2 3;" edge="1" parent="1" source="Ry9jA5pQjCQYoDPNr2ZG-6" target="Ry9jA5pQjCQYoDPNr2ZG-3">
          <mxGeometry relative="1" as="geometry">
            <Array as="points">
              <mxPoint x="514" y="231" />
            </Array>
          </mxGeometry>
        </mxCell>
        <mxCell id="Ry9jA5pQjCQYoDPNr2ZG-23" value="Display Response" style="verticalAlign=bottom;endArrow=block;edgeStyle=elbowEdgeStyle;elbow=vertical;curved=0;rounded=0;dashed=1;dashPattern=2 3;" edge="1" parent="1" source="Ry9jA5pQjCQYoDPNr2ZG-3" target="Ry9jA5pQjCQYoDPNr2ZG-1">
          <mxGeometry relative="1" as="geometry">
            <Array as="points">
              <mxPoint x="244" y="283" />
            </Array>
          </mxGeometry>
        </mxCell>
        <mxCell id="Ry9jA5pQjCQYoDPNr2ZG-24" value="View Employees" style="verticalAlign=bottom;endArrow=block;edgeStyle=elbowEdgeStyle;elbow=vertical;curved=0;rounded=0;" edge="1" parent="1" source="Ry9jA5pQjCQYoDPNr2ZG-1" target="Ry9jA5pQjCQYoDPNr2ZG-4">
          <mxGeometry relative="1" as="geometry">
            <Array as="points">
              <mxPoint x="247" y="335" />
            </Array>
          </mxGeometry>
        </mxCell>
        <mxCell id="Ry9jA5pQjCQYoDPNr2ZG-25" value="Fetch Employee List" style="verticalAlign=bottom;endArrow=block;edgeStyle=elbowEdgeStyle;elbow=vertical;curved=0;rounded=0;" edge="1" parent="1" source="Ry9jA5pQjCQYoDPNr2ZG-4" target="Ry9jA5pQjCQYoDPNr2ZG-7">
          <mxGeometry relative="1" as="geometry">
            <Array as="points">
              <mxPoint x="517" y="387" />
            </Array>
          </mxGeometry>
        </mxCell>
        <mxCell id="Ry9jA5pQjCQYoDPNr2ZG-26" value="Employee List" style="verticalAlign=bottom;endArrow=block;edgeStyle=elbowEdgeStyle;elbow=vertical;curved=0;rounded=0;dashed=1;dashPattern=2 3;" edge="1" parent="1" source="Ry9jA5pQjCQYoDPNr2ZG-7" target="Ry9jA5pQjCQYoDPNr2ZG-4">
          <mxGeometry relative="1" as="geometry">
            <Array as="points">
              <mxPoint x="514" y="439" />
            </Array>
          </mxGeometry>
        </mxCell>
        <mxCell id="Ry9jA5pQjCQYoDPNr2ZG-27" value="Display Employee List" style="verticalAlign=bottom;endArrow=block;edgeStyle=elbowEdgeStyle;elbow=vertical;curved=0;rounded=0;dashed=1;dashPattern=2 3;" edge="1" parent="1" source="Ry9jA5pQjCQYoDPNr2ZG-4" target="Ry9jA5pQjCQYoDPNr2ZG-1">
          <mxGeometry relative="1" as="geometry">
            <Array as="points">
              <mxPoint x="244" y="491" />
            </Array>
          </mxGeometry>
        </mxCell>
        <mxCell id="Ry9jA5pQjCQYoDPNr2ZG-28" value="Add/Update/Delete Payroll" style="verticalAlign=bottom;endArrow=block;edgeStyle=elbowEdgeStyle;elbow=vertical;curved=0;rounded=0;" edge="1" parent="1" source="Ry9jA5pQjCQYoDPNr2ZG-1" target="Ry9jA5pQjCQYoDPNr2ZG-9">
          <mxGeometry relative="1" as="geometry">
            <Array as="points">
              <mxPoint x="473" y="543" />
            </Array>
          </mxGeometry>
        </mxCell>
        <mxCell id="Ry9jA5pQjCQYoDPNr2ZG-29" value="Perform CRUD operations" style="verticalAlign=bottom;endArrow=block;edgeStyle=elbowEdgeStyle;elbow=vertical;curved=0;rounded=0;" edge="1" parent="1" source="Ry9jA5pQjCQYoDPNr2ZG-9" target="Ry9jA5pQjCQYoDPNr2ZG-12">
          <mxGeometry relative="1" as="geometry">
            <Array as="points">
              <mxPoint x="969" y="595" />
            </Array>
          </mxGeometry>
        </mxCell>
        <mxCell id="Ry9jA5pQjCQYoDPNr2ZG-30" value="Success/Failure Response" style="verticalAlign=bottom;endArrow=block;edgeStyle=elbowEdgeStyle;elbow=vertical;curved=0;rounded=0;dashed=1;dashPattern=2 3;" edge="1" parent="1" source="Ry9jA5pQjCQYoDPNr2ZG-12" target="Ry9jA5pQjCQYoDPNr2ZG-9">
          <mxGeometry relative="1" as="geometry">
            <Array as="points">
              <mxPoint x="966" y="647" />
            </Array>
          </mxGeometry>
        </mxCell>
        <mxCell id="Ry9jA5pQjCQYoDPNr2ZG-31" value="Display Response" style="verticalAlign=bottom;endArrow=block;edgeStyle=elbowEdgeStyle;elbow=vertical;curved=0;rounded=0;dashed=1;dashPattern=2 3;" edge="1" parent="1" source="Ry9jA5pQjCQYoDPNr2ZG-9" target="Ry9jA5pQjCQYoDPNr2ZG-1">
          <mxGeometry relative="1" as="geometry">
            <Array as="points">
              <mxPoint x="470" y="699" />
            </Array>
          </mxGeometry>
        </mxCell>
        <mxCell id="Ry9jA5pQjCQYoDPNr2ZG-32" value="View Payrolls" style="verticalAlign=bottom;endArrow=block;edgeStyle=elbowEdgeStyle;elbow=vertical;curved=0;rounded=0;" edge="1" parent="1" source="Ry9jA5pQjCQYoDPNr2ZG-1" target="Ry9jA5pQjCQYoDPNr2ZG-10">
          <mxGeometry relative="1" as="geometry">
            <Array as="points">
              <mxPoint x="473" y="751" />
            </Array>
          </mxGeometry>
        </mxCell>
        <mxCell id="Ry9jA5pQjCQYoDPNr2ZG-33" value="Fetch Payroll List" style="verticalAlign=bottom;endArrow=block;edgeStyle=elbowEdgeStyle;elbow=vertical;curved=0;rounded=0;" edge="1" parent="1" source="Ry9jA5pQjCQYoDPNr2ZG-10" target="Ry9jA5pQjCQYoDPNr2ZG-13">
          <mxGeometry relative="1" as="geometry">
            <Array as="points">
              <mxPoint x="969" y="803" />
            </Array>
          </mxGeometry>
        </mxCell>
        <mxCell id="Ry9jA5pQjCQYoDPNr2ZG-34" value="Payroll List" style="verticalAlign=bottom;endArrow=block;edgeStyle=elbowEdgeStyle;elbow=vertical;curved=0;rounded=0;dashed=1;dashPattern=2 3;" edge="1" parent="1" source="Ry9jA5pQjCQYoDPNr2ZG-13" target="Ry9jA5pQjCQYoDPNr2ZG-10">
          <mxGeometry relative="1" as="geometry">
            <Array as="points">
              <mxPoint x="966" y="855" />
            </Array>
          </mxGeometry>
        </mxCell>
        <mxCell id="Ry9jA5pQjCQYoDPNr2ZG-35" value="Display Payroll List" style="verticalAlign=bottom;endArrow=block;edgeStyle=elbowEdgeStyle;elbow=vertical;curved=0;rounded=0;dashed=1;dashPattern=2 3;" edge="1" parent="1" source="Ry9jA5pQjCQYoDPNr2ZG-10" target="Ry9jA5pQjCQYoDPNr2ZG-1">
          <mxGeometry relative="1" as="geometry">
            <Array as="points">
              <mxPoint x="470" y="907" />
            </Array>
          </mxGeometry>
        </mxCell>
        <mxCell id="Ry9jA5pQjCQYoDPNr2ZG-36" value="Add/Update/Delete Attendance" style="verticalAlign=bottom;endArrow=block;edgeStyle=elbowEdgeStyle;elbow=vertical;curved=0;rounded=0;" edge="1" parent="1" source="Ry9jA5pQjCQYoDPNr2ZG-1" target="Ry9jA5pQjCQYoDPNr2ZG-15">
          <mxGeometry relative="1" as="geometry">
            <Array as="points">
              <mxPoint x="699" y="959" />
            </Array>
          </mxGeometry>
        </mxCell>
        <mxCell id="Ry9jA5pQjCQYoDPNr2ZG-37" value="Perform CRUD operations" style="verticalAlign=bottom;endArrow=block;edgeStyle=elbowEdgeStyle;elbow=vertical;curved=0;rounded=0;" edge="1" parent="1" source="Ry9jA5pQjCQYoDPNr2ZG-15" target="Ry9jA5pQjCQYoDPNr2ZG-18">
          <mxGeometry relative="1" as="geometry">
            <Array as="points">
              <mxPoint x="1421" y="1011" />
            </Array>
          </mxGeometry>
        </mxCell>
        <mxCell id="Ry9jA5pQjCQYoDPNr2ZG-38" value="Success/Failure Response" style="verticalAlign=bottom;endArrow=block;edgeStyle=elbowEdgeStyle;elbow=vertical;curved=0;rounded=0;dashed=1;dashPattern=2 3;" edge="1" parent="1" source="Ry9jA5pQjCQYoDPNr2ZG-18" target="Ry9jA5pQjCQYoDPNr2ZG-15">
          <mxGeometry relative="1" as="geometry">
            <Array as="points">
              <mxPoint x="1418" y="1063" />
            </Array>
          </mxGeometry>
        </mxCell>
        <mxCell id="Ry9jA5pQjCQYoDPNr2ZG-39" value="Display Response" style="verticalAlign=bottom;endArrow=block;edgeStyle=elbowEdgeStyle;elbow=vertical;curved=0;rounded=0;dashed=1;dashPattern=2 3;" edge="1" parent="1" source="Ry9jA5pQjCQYoDPNr2ZG-15" target="Ry9jA5pQjCQYoDPNr2ZG-1">
          <mxGeometry relative="1" as="geometry">
            <Array as="points">
              <mxPoint x="696" y="1115" />
            </Array>
          </mxGeometry>
        </mxCell>
        <mxCell id="Ry9jA5pQjCQYoDPNr2ZG-40" value="View Attendance" style="verticalAlign=bottom;endArrow=block;edgeStyle=elbowEdgeStyle;elbow=vertical;curved=0;rounded=0;" edge="1" parent="1" source="Ry9jA5pQjCQYoDPNr2ZG-1" target="Ry9jA5pQjCQYoDPNr2ZG-16">
          <mxGeometry relative="1" as="geometry">
            <Array as="points">
              <mxPoint x="699" y="1167" />
            </Array>
          </mxGeometry>
        </mxCell>
        <mxCell id="Ry9jA5pQjCQYoDPNr2ZG-41" value="Fetch Attendance List" style="verticalAlign=bottom;endArrow=block;edgeStyle=elbowEdgeStyle;elbow=vertical;curved=0;rounded=0;" edge="1" parent="1" source="Ry9jA5pQjCQYoDPNr2ZG-16" target="Ry9jA5pQjCQYoDPNr2ZG-19">
          <mxGeometry relative="1" as="geometry">
            <Array as="points">
              <mxPoint x="1421" y="1219" />
            </Array>
          </mxGeometry>
        </mxCell>
        <mxCell id="Ry9jA5pQjCQYoDPNr2ZG-42" value="Attendance List" style="verticalAlign=bottom;endArrow=block;edgeStyle=elbowEdgeStyle;elbow=vertical;curved=0;rounded=0;dashed=1;dashPattern=2 3;" edge="1" parent="1" source="Ry9jA5pQjCQYoDPNr2ZG-19" target="Ry9jA5pQjCQYoDPNr2ZG-16">
          <mxGeometry relative="1" as="geometry">
            <Array as="points">
              <mxPoint x="1418" y="1271" />
            </Array>
          </mxGeometry>
        </mxCell>
        <mxCell id="Ry9jA5pQjCQYoDPNr2ZG-43" value="Display Attendance List" style="verticalAlign=bottom;endArrow=block;edgeStyle=elbowEdgeStyle;elbow=vertical;curved=0;rounded=0;dashed=1;dashPattern=2 3;" edge="1" parent="1" source="Ry9jA5pQjCQYoDPNr2ZG-16" target="Ry9jA5pQjCQYoDPNr2ZG-1">
          <mxGeometry relative="1" as="geometry">
            <Array as="points">
              <mxPoint x="696" y="1323" />
            </Array>
          </mxGeometry>
        </mxCell>
      </root>
    </mxGraphModel>
  </diagram>
</mxfile>
